HIERARCHY
ROOT Hips
{
	OFFSET 0.000000 0.000000 0.000000
	CHANNELS 6 Xposition Yposition Zposition Xrotation Yrotation Zrotation
	JOINT LeftUpLeg_virtual
	{
		OFFSET 0.000000 0.000000 0.000000
		CHANNELS 3 Xrotation Yrotation Zrotation
		JOINT LeftUpLeg
		{
			OFFSET 13.026900 -6.336304 -1.092800
			CHANNELS 3 Xrotation Yrotation Zrotation
			JOINT LeftLeg
			{
				OFFSET 0.524474 -46.096886 9.782700
				CHANNELS 3 Xrotation Yrotation Zrotation
				JOINT LeftFoot
				{
					OFFSET -0.524474 -53.427422 -12.948200
					CHANNELS 3 Xrotation Yrotation Zrotation
					JOINT LeftToeBase
					{
						OFFSET 0.192200 -14.009700 16.364100
						CHANNELS 3 Xrotation Yrotation Zrotation
						JOINT LeftToe_End
						{
							OFFSET -1.784700 -0.561700 9.474800
							CHANNELS 3 Xrotation Yrotation Zrotation
							End Site
							{
								OFFSET 0 0 0
							}
						}
					}
				}
			}
		}
	}
	JOINT RightUpLeg_virtual
	{
		OFFSET 0.000000 0.000000 0.000000
		CHANNELS 3 Xrotation Yrotation Zrotation
		JOINT RightUpLeg
		{
			OFFSET -12.883000 -6.336304 -1.092800
			CHANNELS 3 Xrotation Yrotation Zrotation
			JOINT RightLeg
			{
				OFFSET -0.524587 -46.096825 9.782800
				CHANNELS 3 Xrotation Yrotation Zrotation
				JOINT RightFoot
				{
					OFFSET 0.524587 -53.427383 -12.948300
					CHANNELS 3 Xrotation Yrotation Zrotation
					JOINT RightToeBase
					{
						OFFSET -0.192200 -14.009700 16.364100
						CHANNELS 3 Xrotation Yrotation Zrotation
						JOINT RightToe_End
						{
							OFFSET 1.784700 -0.561700 9.474800
							CHANNELS 3 Xrotation Yrotation Zrotation
							End Site
							{
								OFFSET 0 0 0
							}
						}
					}
				}
			}
		}
	}
	JOINT Spine_virtual
	{
		OFFSET 0.000000 0.000000 0.000000
		CHANNELS 3 Xrotation Yrotation Zrotation
		JOINT Spine
		{
			OFFSET 0.072000 7.257294 -0.789700
			CHANNELS 3 Xrotation Yrotation Zrotation
			JOINT Spine1
			{
				OFFSET 0.000000 12.508769 -0.658067
				CHANNELS 3 Xrotation Yrotation Zrotation
				JOINT Spine1_split
				{
					OFFSET 0.000000 12.508769 -0.658067
					CHANNELS 3 Xrotation Yrotation Zrotation
					JOINT Spine2
					{
						OFFSET 0.000000 12.508769 -0.658067
						CHANNELS 3 Xrotation Yrotation Zrotation
						JOINT Neck_virtual
						{
							OFFSET 0.000000 0.000000 0.000000
							CHANNELS 3 Xrotation Yrotation Zrotation
							JOINT Neck
							{
								OFFSET 0.000000 14.033295 7.520400
								CHANNELS 3 Xrotation Yrotation Zrotation
								JOINT Head
								{
									OFFSET 0.000000 8.198502 5.703100
									CHANNELS 3 Xrotation Yrotation Zrotation
									JOINT HeadTop_End
									{
										OFFSET 0.000000 17.760803 13.332701
										CHANNELS 3 Xrotation Yrotation Zrotation
										End Site
										{
											OFFSET 0 0 0
										}
									}
								}
							}
						}
						JOINT LeftShoulder_virtual
						{
							OFFSET 0.000000 0.000000 0.000000
							CHANNELS 3 Xrotation Yrotation Zrotation
							JOINT LeftShoulder
							{
								OFFSET 6.292450 5.785301 -0.669000
								CHANNELS 3 Xrotation Yrotation Zrotation
								JOINT LeftShoulder_split
								{
									OFFSET 6.292450 5.785301 -0.669000
									CHANNELS 3 Xrotation Yrotation Zrotation
									JOINT LeftArm
									{
										OFFSET 13.907140 -6.093903 1.965100
										CHANNELS 3 Xrotation Yrotation Zrotation
										JOINT LeftForeArm
										{
											OFFSET 34.140198 0.000000 0.000000
											CHANNELS 3 Xrotation Yrotation Zrotation
											JOINT LeftHand
											{
												OFFSET 40.960209 0.000000 0.000000
												CHANNELS 3 Xrotation Yrotation Zrotation
												End Site
												{
													OFFSET 0 0 0
												}
											}
										}
									}
								}
							}
						}
						JOINT RightShoulder_virtual
						{
							OFFSET 0.000000 0.000000 0.000000
							CHANNELS 3 Xrotation Yrotation Zrotation
							JOINT RightShoulder
							{
								OFFSET -6.292450 5.785301 -0.669000
								CHANNELS 3 Xrotation Yrotation Zrotation
								JOINT RightShoulder_split
								{
									OFFSET -6.292450 5.785301 -0.669000
									CHANNELS 3 Xrotation Yrotation Zrotation
									JOINT RightArm
									{
										OFFSET -13.907140 -6.093903 1.965100
										CHANNELS 3 Xrotation Yrotation Zrotation
										JOINT RightForeArm
										{
											OFFSET -34.140198 0.000000 0.000000
											CHANNELS 3 Xrotation Yrotation Zrotation
											JOINT RightHand
											{
												OFFSET -40.960209 0.000000 0.000000
												CHANNELS 3 Xrotation Yrotation Zrotation
												End Site
												{
													OFFSET 0 0 0
												}
											}
										}
									}
								}
							}
						}
					}
				}
			}
		}
	}
}
MOTION
Frames: 4
Frame Time: 0.03333333
26.722054 277.989349 61.606735 0.000000 0.000000 0.000000 -0.823174 34.118742 1.005580 -31.666973 31.499863 18.260113 34.323825 -13.280070 4.398252 9.114355 -13.583313 -22.520892 8.842791 -1.345732 -0.263148 0.000000 0.000000 0.000000 1.569030 31.876964 0.072336 -46.942661 -5.197544 -11.762593 0.228980 13.085819 0.764943 15.272865 1.692595 11.325741 10.863058 -0.403084 -0.918472 0.000000 0.000000 0.000000 1.660778 41.716623 0.112915 6.792132 -4.166972 -0.453917 15.626428 -6.123021 4.653627 0.283219 0.376838 -0.248517 0.000000 0.000000 0.000000 15.243688 -3.743251 5.194465 -5.926979 7.666489 -16.155969 -17.580804 -51.115346 -12.706602 0.000000 0.000000 0.000000 11.245242 -5.285154 1.757498 0.306465 2.887896 6.521918 6.379463 -0.737648 4.529972 -131.922700 -71.433711 -139.694089 -69.412446 -78.306022 -69.421537 0.000000 0.000000 0.000000 15.006281 -4.364481 3.770460 -2.259996 11.314762 3.174245 0.307998 -4.140968 3.327139 -20.405527 45.020085 55.776776 -23.777577 42.936837 20.528612 0.000000 0.000000 0.000000 
26.687267 270.406982 67.240944 0.000000 0.000000 0.000000 -1.880464 32.415412 1.672324 -30.067927 31.301521 18.231879 33.672354 -12.229637 4.279541 7.561410 -14.093376 -26.510201 10.952233 -1.517569 -0.282187 0.000000 0.000000 0.000000 0.704275 30.630434 0.721168 -46.559832 -3.764450 -10.950514 2.372298 14.325483 0.786837 19.971284 3.755943 10.980008 14.193986 -0.184245 -0.170047 0.000000 0.000000 0.000000 -0.923414 40.350166 1.815755 7.192939 -2.868496 0.221934 15.570331 -5.990222 4.350232 0.178422 0.431913 -0.228086 0.000000 0.000000 0.000000 15.255187 -3.662251 4.733430 -3.800746 6.764990 -17.125451 -17.654200 -58.472908 -12.783333 0.000000 0.000000 0.000000 11.769631 -5.269446 1.653146 0.423772 2.303563 7.005691 7.067210 -0.237696 3.525002 -124.757339 -70.884468 -132.015331 -64.780567 -78.573144 -64.838781 0.000000 0.000000 0.000000 15.494463 -4.228545 3.678675 -2.250395 11.678600 2.057437 0.477098 -3.546498 3.491661 -23.018511 45.544839 55.774263 -23.600194 40.143935 19.934068 0.000000 0.000000 0.000000 
26.403902 261.462769 72.828766 0.000000 0.000000 0.000000 -2.317768 30.904731 2.057904 -27.230668 31.335590 17.233585 31.452102 -9.572343 4.108934 5.558227 -12.941997 -28.609140 12.079917 -1.580444 -0.987837 0.000000 0.000000 0.000000 0.240943 29.952787 1.123977 -46.122317 -3.072078 -10.097083 4.155024 14.733655 0.823679 24.621027 4.535769 11.081967 14.373052 0.058294 -0.438618 0.000000 0.000000 0.000000 -2.203055 38.604847 2.846047 7.276536 -1.730678 0.877457 15.299624 -5.488178 3.843888 0.091117 0.457892 -0.161352 0.000000 0.000000 0.000000 14.792639 -3.275683 3.980980 -1.643953 5.941738 -17.058097 -18.828458 -65.302831 -14.192696 0.000000 0.000000 0.000000 12.243267 -4.883525 1.447280 0.398876 1.820305 7.741152 7.789910 0.701673 2.028878 -116.053684 -69.275535 -122.595339 -51.646800 -77.592055 -51.901153 0.000000 0.000000 0.000000 15.798417 -3.767975 3.280443 -2.305778 11.453014 0.218319 0.860289 -3.355826 4.482617 -24.870373 45.453031 56.912517 -24.507400 40.553770 20.234867 0.000000 0.000000 0.000000 
26.105223 251.119507 78.283272 0.000000 0.000000 0.000000 -2.372375 29.869278 2.358920 -24.377065 31.196199 15.811722 27.445845 -6.738881 4.302258 4.710131 -11.752280 -29.968896 10.557140 -1.557653 -1.891039 0.000000 0.000000 0.000000 0.441112 29.865542 1.347691 -43.098777 -3.861115 -8.563029 3.884061 13.546572 0.654268 25.216314 3.446855 11.081746 10.054204 0.327162 -1.735645 0.000000 0.000000 0.000000 -2.226367 37.032831 3.393473 7.023243 -0.920809 1.328401 14.875334 -4.681125 3.222943 0.062945 0.402123 -0.045239 0.000000 0.000000 0.000000 13.955401 -2.615626 3.029771 -0.057718 5.363903 -15.735738 -21.537986 -70.961076 -17.331958 0.000000 0.000000 0.000000 12.655653 -4.200037 1.216013 0.183363 1.580929 8.796688 8.584699 1.517752 0.307687 -108.333241 -67.141149 -114.161394 -38.391452 -75.093600 -38.935329 0.000000 0.000000 0.000000 15.842526 -3.106329 2.622889 -2.411186 10.660334 -1.925519 1.635237 -3.175293 5.631689 -25.962990 44.788392 59.414047 -26.555782 44.581020 21.677303 0.000000 0.000000 0.000000 
